<svg width="174" height="37" viewBox="0 0 174 37" fill="none" xmlns="http://www.w3.org/2000/svg">
<path d="M40.916 32.012H36.954L36.254 34H34.168L37.808 24.228H40.062L43.688 34H41.602L40.916 32.012ZM40.384 30.514L38.928 26.342L37.472 30.514H40.384ZM47.4274 26.146C48.3701 26.146 49.1261 26.384 49.6954 26.86C50.2648 27.336 50.6194 27.9707 50.7594 28.764H48.9114C48.8368 28.3907 48.6688 28.092 48.4074 27.868C48.1461 27.644 47.8054 27.532 47.3854 27.532C47.0494 27.532 46.7881 27.6113 46.6014 27.77C46.4148 27.9287 46.3214 28.1433 46.3214 28.414C46.3214 28.6287 46.3961 28.8013 46.5454 28.932C46.6948 29.0627 46.8814 29.1653 47.1054 29.24C47.3294 29.3147 47.6514 29.4033 48.0714 29.506C48.6594 29.6367 49.1354 29.7767 49.4994 29.926C49.8728 30.066 50.1901 30.2947 50.4514 30.612C50.7221 30.92 50.8574 31.34 50.8574 31.872C50.8574 32.5347 50.5961 33.0713 50.0734 33.482C49.5601 33.8927 48.8648 34.098 47.9874 34.098C46.9794 34.098 46.1721 33.874 45.5654 33.426C44.9588 32.9687 44.5901 32.32 44.4594 31.48H46.3494C46.3961 31.8627 46.5641 32.166 46.8534 32.39C47.1428 32.6047 47.5208 32.712 47.9874 32.712C48.3234 32.712 48.5801 32.6327 48.7574 32.474C48.9348 32.306 49.0234 32.0913 49.0234 31.83C49.0234 31.606 48.9441 31.424 48.7854 31.284C48.6361 31.144 48.4448 31.0367 48.2114 30.962C47.9874 30.8873 47.6654 30.7987 47.2454 30.696C46.6668 30.5653 46.1954 30.4347 45.8314 30.304C45.4768 30.164 45.1688 29.9447 44.9074 29.646C44.6554 29.3473 44.5294 28.9367 44.5294 28.414C44.5294 27.742 44.7861 27.196 45.2994 26.776C45.8128 26.356 46.5221 26.146 47.4274 26.146ZM52.1036 24.018C52.1036 23.7007 52.2156 23.444 52.4396 23.248C52.6636 23.0427 52.9576 22.94 53.3216 22.94C53.6856 22.94 53.9796 23.0427 54.2036 23.248C54.4276 23.444 54.5396 23.7007 54.5396 24.018C54.5396 24.326 54.4276 24.5827 54.2036 24.788C53.9796 24.984 53.6856 25.082 53.3216 25.082C52.9576 25.082 52.6636 24.984 52.4396 24.788C52.2156 24.5827 52.1036 24.326 52.1036 24.018ZM54.3016 26.244V34H52.3276V26.244H54.3016ZM58.7614 26.146C59.7041 26.146 60.4601 26.384 61.0294 26.86C61.5987 27.336 61.9534 27.9707 62.0934 28.764H60.2454C60.1707 28.3907 60.0027 28.092 59.7414 27.868C59.4801 27.644 59.1394 27.532 58.7194 27.532C58.3834 27.532 58.1221 27.6113 57.9354 27.77C57.7487 27.9287 57.6554 28.1433 57.6554 28.414C57.6554 28.6287 57.7301 28.8013 57.8794 28.932C58.0287 29.0627 58.2154 29.1653 58.4394 29.24C58.6634 29.3147 58.9854 29.4033 59.4054 29.506C59.9934 29.6367 60.4694 29.7767 60.8334 29.926C61.2067 30.066 61.5241 30.2947 61.7854 30.612C62.0561 30.92 62.1914 31.34 62.1914 31.872C62.1914 32.5347 61.9301 33.0713 61.4074 33.482C60.8941 33.8927 60.1987 34.098 59.3214 34.098C58.3134 34.098 57.5061 33.874 56.8994 33.426C56.2927 32.9687 55.9241 32.32 55.7934 31.48H57.6834C57.7301 31.8627 57.8981 32.166 58.1874 32.39C58.4767 32.6047 58.8547 32.712 59.3214 32.712C59.6574 32.712 59.9141 32.6327 60.0914 32.474C60.2687 32.306 60.3574 32.0913 60.3574 31.83C60.3574 31.606 60.2781 31.424 60.1194 31.284C59.9701 31.144 59.7787 31.0367 59.5454 30.962C59.3214 30.8873 58.9994 30.7987 58.5794 30.696C58.0007 30.5653 57.5294 30.4347 57.1654 30.304C56.8107 30.164 56.5027 29.9447 56.2414 29.646C55.9894 29.3473 55.8634 28.9367 55.8634 28.414C55.8634 27.742 56.1201 27.196 56.6334 26.776C57.1467 26.356 57.8561 26.146 58.7614 26.146ZM67.8056 32.306V34H66.7696C65.9016 34 65.2343 33.79 64.7676 33.37C64.3103 32.95 64.0816 32.25 64.0816 31.27V27.91H63.0036V26.244H64.0816V24.326H66.0556V26.244H67.7916V27.91H66.0556V31.298C66.0556 31.6713 66.1303 31.9327 66.2796 32.082C66.429 32.2313 66.681 32.306 67.0356 32.306H67.8056ZM76.5201 29.828C76.5201 30.024 76.4967 30.248 76.4501 30.5H70.7661C70.7941 31.1907 70.9807 31.6993 71.3261 32.026C71.6714 32.3527 72.1007 32.516 72.6141 32.516C73.0714 32.516 73.4494 32.404 73.7481 32.18C74.0561 31.956 74.2521 31.6527 74.3361 31.27H76.4221C76.3194 31.8113 76.1001 32.2967 75.7641 32.726C75.4281 33.1553 74.9941 33.4913 74.4621 33.734C73.9394 33.9767 73.3561 34.098 72.7121 34.098C71.9561 34.098 71.2841 33.9393 70.6961 33.622C70.1081 33.2953 69.6507 32.8333 69.3241 32.236C68.9974 31.6387 68.8341 30.934 68.8341 30.122C68.8341 29.31 68.9974 28.6053 69.3241 28.008C69.6507 27.4013 70.1081 26.9393 70.6961 26.622C71.2841 26.3047 71.9561 26.146 72.7121 26.146C73.4774 26.146 74.1447 26.3047 74.7141 26.622C75.2927 26.9393 75.7361 27.378 76.0441 27.938C76.3614 28.4887 76.5201 29.1187 76.5201 29.828ZM74.5321 29.632C74.5601 28.9973 74.3921 28.5167 74.0281 28.19C73.6734 27.8633 73.2347 27.7 72.7121 27.7C72.1801 27.7 71.7321 27.8633 71.3681 28.19C71.0041 28.5167 70.8034 28.9973 70.7661 29.632H74.5321ZM82.5414 26.132C83.4374 26.132 84.1514 26.426 84.6834 27.014C85.2154 27.602 85.4814 28.428 85.4814 29.492V34H83.5214V29.716C83.5214 29.1 83.3627 28.624 83.0454 28.288C82.7281 27.9427 82.2941 27.77 81.7434 27.77C81.1834 27.77 80.7354 27.952 80.3994 28.316C80.0634 28.68 79.8954 29.2027 79.8954 29.884V34H77.9214V26.244H79.8954V27.798C80.1007 27.2753 80.4367 26.8693 80.9034 26.58C81.3794 26.2813 81.9254 26.132 82.5414 26.132ZM91.3623 32.306V34H90.3263C89.4583 34 88.7909 33.79 88.3243 33.37C87.8669 32.95 87.6383 32.25 87.6383 31.27V27.91H86.5603V26.244H87.6383V24.326H89.6123V26.244H91.3483V27.91H89.6123V31.298C89.6123 31.6713 89.6869 31.9327 89.8363 32.082C89.9856 32.2313 90.2376 32.306 90.5923 32.306H91.3623ZM100.077 29.828C100.077 30.024 100.053 30.248 100.007 30.5H94.3227C94.3507 31.1907 94.5374 31.6993 94.8827 32.026C95.2281 32.3527 95.6574 32.516 96.1707 32.516C96.6281 32.516 97.0061 32.404 97.3047 32.18C97.6127 31.956 97.8087 31.6527 97.8927 31.27H99.9787C99.8761 31.8113 99.6567 32.2967 99.3207 32.726C98.9847 33.1553 98.5507 33.4913 98.0187 33.734C97.4961 33.9767 96.9127 34.098 96.2687 34.098C95.5127 34.098 94.8407 33.9393 94.2527 33.622C93.6647 33.2953 93.2074 32.8333 92.8807 32.236C92.5541 31.6387 92.3907 30.934 92.3907 30.122C92.3907 29.31 92.5541 28.6053 92.8807 28.008C93.2074 27.4013 93.6647 26.9393 94.2527 26.622C94.8407 26.3047 95.5127 26.146 96.2687 26.146C97.0341 26.146 97.7014 26.3047 98.2707 26.622C98.8494 26.9393 99.2927 27.378 99.6007 27.938C99.9181 28.4887 100.077 29.1187 100.077 29.828ZM98.0887 29.632C98.1167 28.9973 97.9487 28.5167 97.5847 28.19C97.2301 27.8633 96.7914 27.7 96.2687 27.7C95.7367 27.7 95.2887 27.8633 94.9247 28.19C94.5607 28.5167 94.3601 28.9973 94.3227 29.632H98.0887ZM107.901 32.026L109.861 26.244H111.961L109.091 34H106.683L103.813 26.244H105.927L107.901 32.026ZM112.834 24.018C112.834 23.7007 112.946 23.444 113.17 23.248C113.394 23.0427 113.688 22.94 114.052 22.94C114.416 22.94 114.71 23.0427 114.934 23.248C115.158 23.444 115.27 23.7007 115.27 24.018C115.27 24.326 115.158 24.5827 114.934 24.788C114.71 24.984 114.416 25.082 114.052 25.082C113.688 25.082 113.394 24.984 113.17 24.788C112.946 24.5827 112.834 24.326 112.834 24.018ZM115.032 26.244V34H113.058V26.244H115.032ZM118.792 27.728C119.081 27.2333 119.464 26.846 119.94 26.566C120.416 26.2767 120.948 26.132 121.536 26.132V28.246H120.962C119.515 28.246 118.792 28.918 118.792 30.262V34H116.818V26.244H118.792V27.728ZM126.772 32.306V34H125.736C124.868 34 124.201 33.79 123.734 33.37C123.277 32.95 123.048 32.25 123.048 31.27V27.91H121.97V26.244H123.048V24.326H125.022V26.244H126.758V27.91H125.022V31.298C125.022 31.6713 125.097 31.9327 125.246 32.082C125.396 32.2313 125.648 32.306 126.002 32.306H126.772ZM135.613 26.244V34H133.639V32.432C133.434 32.9547 133.093 33.3653 132.617 33.664C132.15 33.9533 131.609 34.098 130.993 34.098C130.097 34.098 129.383 33.804 128.851 33.216C128.319 32.628 128.053 31.8067 128.053 30.752V26.244H130.013V30.528C130.013 31.144 130.172 31.6247 130.489 31.97C130.806 32.306 131.236 32.474 131.777 32.474C132.346 32.474 132.799 32.292 133.135 31.928C133.471 31.564 133.639 31.0413 133.639 30.36V26.244H135.613ZM140.446 26.146C141.099 26.146 141.659 26.3 142.126 26.608C142.592 26.916 142.924 27.3313 143.12 27.854V26.244H145.08V34H143.12V32.376C142.924 32.8987 142.592 33.3187 142.126 33.636C141.659 33.944 141.099 34.098 140.446 34.098C139.792 34.098 139.204 33.9393 138.682 33.622C138.159 33.3047 137.748 32.8473 137.45 32.25C137.16 31.6433 137.016 30.934 137.016 30.122C137.016 29.31 137.16 28.6053 137.45 28.008C137.748 27.4013 138.159 26.9393 138.682 26.622C139.204 26.3047 139.792 26.146 140.446 26.146ZM141.062 27.868C140.446 27.868 139.951 28.0687 139.578 28.47C139.204 28.8713 139.018 29.422 139.018 30.122C139.018 30.822 139.204 31.3727 139.578 31.774C139.951 32.166 140.446 32.362 141.062 32.362C141.659 32.362 142.149 32.1613 142.532 31.76C142.924 31.3493 143.12 30.8033 143.12 30.122C143.12 29.4313 142.924 28.8853 142.532 28.484C142.149 28.0733 141.659 27.868 141.062 27.868ZM148.843 23.64V34H146.869V23.64H148.843Z" fill="#8C8C83"/>
<path d="M39.005 3.744C40.123 3.744 41.046 4.02133 41.774 4.576C42.502 5.122 43.0047 5.87167 43.282 6.825H42.034C41.8 6.21833 41.423 5.73733 40.903 5.382C40.383 5.018 39.746 4.836 38.992 4.836C38.394 4.836 37.8567 4.98333 37.38 5.278C36.912 5.564 36.5393 5.98 36.262 6.526C35.9933 7.06333 35.859 7.696 35.859 8.424C35.859 9.14333 35.9933 9.77167 36.262 10.309C36.5393 10.8463 36.912 11.2623 37.38 11.557C37.8567 11.843 38.394 11.986 38.992 11.986C39.746 11.986 40.383 11.8083 40.903 11.453C41.423 11.089 41.8 10.6037 42.034 9.997H43.282C43.0047 10.9503 42.502 11.7043 41.774 12.259C41.046 12.805 40.123 13.078 39.005 13.078C38.147 13.078 37.3887 12.883 36.73 12.493C36.0713 12.0943 35.5557 11.544 35.183 10.842C34.819 10.1313 34.637 9.32533 34.637 8.424C34.637 7.514 34.819 6.70367 35.183 5.993C35.5557 5.28233 36.0713 4.732 36.73 4.342C37.3887 3.94333 38.147 3.744 39.005 3.744ZM48.101 5.772C48.7857 5.772 49.3967 5.91933 49.934 6.214C50.48 6.50867 50.9047 6.93333 51.208 7.488C51.52 8.04267 51.676 8.69267 51.676 9.438C51.676 10.1833 51.52 10.8333 51.208 11.388C50.9047 11.934 50.48 12.3543 49.934 12.649C49.3967 12.9437 48.7857 13.091 48.101 13.091C47.4164 13.091 46.801 12.9437 46.255 12.649C45.7177 12.3543 45.293 11.934 44.981 11.388C44.669 10.8333 44.513 10.1833 44.513 9.438C44.513 8.69267 44.669 8.04267 44.981 7.488C45.293 6.93333 45.7177 6.50867 46.255 6.214C46.801 5.91933 47.4164 5.772 48.101 5.772ZM48.101 6.812C47.6764 6.812 47.282 6.90733 46.918 7.098C46.5627 7.28867 46.2724 7.58333 46.047 7.982C45.8304 8.372 45.722 8.85733 45.722 9.438C45.722 10.01 45.8304 10.4953 46.047 10.894C46.2724 11.284 46.5627 11.5743 46.918 11.765C47.282 11.9557 47.6764 12.051 48.101 12.051C48.5257 12.051 48.9157 11.9557 49.271 11.765C49.635 11.5743 49.9254 11.284 50.142 10.894C50.3674 10.4953 50.48 10.01 50.48 9.438C50.48 8.85733 50.3674 8.372 50.142 7.982C49.9254 7.58333 49.635 7.28867 49.271 7.098C48.9157 6.90733 48.5257 6.812 48.101 6.812ZM56.9746 5.746C57.8066 5.746 58.4782 6.01467 58.9896 6.552C59.5009 7.08067 59.7566 7.84767 59.7566 8.853V13H58.5736V8.957C58.5736 8.24633 58.3916 7.70033 58.0276 7.319C57.6636 6.93767 57.1696 6.747 56.5456 6.747C55.8956 6.747 55.3756 6.95933 54.9856 7.384C54.5956 7.8 54.4006 8.411 54.4006 9.217V13H53.2176V5.863H54.4006V7.553C54.5826 6.97233 54.9032 6.526 55.3626 6.214C55.8306 5.902 56.3679 5.746 56.9746 5.746ZM64.9771 11.96V13H64.0931C63.3651 13 62.8191 12.8267 62.4551 12.48C62.0997 12.1333 61.9221 11.5527 61.9221 10.738V6.89H60.8561V5.863H61.9221V4.082H63.1181V5.863H64.9641V6.89H63.1181V10.764C63.1181 11.2233 63.2004 11.5397 63.3651 11.713C63.5384 11.8777 63.8331 11.96 64.2491 11.96H64.9771ZM69.3457 5.772C70.039 5.772 70.624 5.94533 71.1007 6.292C71.586 6.63867 71.924 7.10233 72.1147 7.683V5.863H73.2977V13H72.1147V11.18C71.924 11.7607 71.586 12.2243 71.1007 12.571C70.624 12.9177 70.039 13.091 69.3457 13.091C68.713 13.091 68.1497 12.9437 67.6557 12.649C67.1617 12.3543 66.7717 11.934 66.4857 11.388C66.2083 10.8333 66.0697 10.1833 66.0697 9.438C66.0697 8.69267 66.2083 8.04267 66.4857 7.488C66.7717 6.93333 67.1617 6.50867 67.6557 6.214C68.1497 5.91933 68.713 5.772 69.3457 5.772ZM69.6837 6.825C68.9557 6.825 68.3707 7.059 67.9287 7.527C67.4953 7.98633 67.2787 8.62333 67.2787 9.438C67.2787 10.2527 67.4953 10.894 67.9287 11.362C68.3707 11.8213 68.9557 12.051 69.6837 12.051C70.1517 12.051 70.5677 11.9427 70.9317 11.726C71.3043 11.5093 71.5947 11.206 71.8027 10.816C72.0107 10.4173 72.1147 9.958 72.1147 9.438C72.1147 8.918 72.0107 8.45867 71.8027 8.06C71.5947 7.66133 71.3043 7.358 70.9317 7.15C70.5677 6.93333 70.1517 6.825 69.6837 6.825ZM78.3394 5.772C79.2494 5.772 80.0034 6.01467 80.6014 6.5C81.1994 6.98533 81.5678 7.63533 81.7064 8.45H80.4584C80.3718 7.93867 80.1334 7.54 79.7434 7.254C79.3621 6.95933 78.8854 6.812 78.3134 6.812C77.8974 6.812 77.5161 6.90733 77.1694 7.098C76.8314 7.28867 76.5584 7.58333 76.3504 7.982C76.1424 8.372 76.0384 8.85733 76.0384 9.438C76.0384 10.0187 76.1424 10.5083 76.3504 10.907C76.5584 11.297 76.8314 11.5873 77.1694 11.778C77.5161 11.9687 77.8974 12.064 78.3134 12.064C78.8854 12.064 79.3621 11.9167 79.7434 11.622C80.1334 11.3273 80.3718 10.9243 80.4584 10.413H81.7064C81.5678 11.2363 81.1994 11.8907 80.6014 12.376C80.0034 12.8527 79.2494 13.091 78.3394 13.091C77.6548 13.091 77.0481 12.9437 76.5194 12.649C75.9908 12.3543 75.5748 11.934 75.2714 11.388C74.9768 10.8333 74.8294 10.1833 74.8294 9.438C74.8294 8.69267 74.9768 8.04267 75.2714 7.488C75.5748 6.93333 75.9908 6.50867 76.5194 6.214C77.0481 5.91933 77.6548 5.772 78.3394 5.772ZM86.6607 11.96V13H85.7767C85.0487 13 84.5027 12.8267 84.1387 12.48C83.7833 12.1333 83.6057 11.5527 83.6057 10.738V6.89H82.5397V5.863H83.6057V4.082H84.8017V5.863H86.6477V6.89H84.8017V10.764C84.8017 11.2233 84.884 11.5397 85.0487 11.713C85.222 11.8777 85.5167 11.96 85.9327 11.96H86.6607ZM91.0293 5.772C91.7226 5.772 92.3076 5.94533 92.7843 6.292C93.2696 6.63867 93.6076 7.10233 93.7983 7.683V5.863H94.9813V13H93.7983V11.18C93.6076 11.7607 93.2696 12.2243 92.7843 12.571C92.3076 12.9177 91.7226 13.091 91.0293 13.091C90.3966 13.091 89.8333 12.9437 89.3393 12.649C88.8453 12.3543 88.4553 11.934 88.1693 11.388C87.8919 10.8333 87.7533 10.1833 87.7533 9.438C87.7533 8.69267 87.8919 8.04267 88.1693 7.488C88.4553 6.93333 88.8453 6.50867 89.3393 6.214C89.8333 5.91933 90.3966 5.772 91.0293 5.772ZM91.3673 6.825C90.6393 6.825 90.0543 7.059 89.6123 7.527C89.1789 7.98633 88.9623 8.62333 88.9623 9.438C88.9623 10.2527 89.1789 10.894 89.6123 11.362C90.0543 11.8213 90.6393 12.051 91.3673 12.051C91.8353 12.051 92.2513 11.9427 92.6153 11.726C92.9879 11.5093 93.2783 11.206 93.4863 10.816C93.6943 10.4173 93.7983 9.958 93.7983 9.438C93.7983 8.918 93.6943 8.45867 93.4863 8.06C93.2783 7.66133 92.9879 7.358 92.6153 7.15C92.2513 6.93333 91.8353 6.825 91.3673 6.825ZM103.833 5.746C104.665 5.746 105.337 6.01467 105.848 6.552C106.359 7.08067 106.615 7.84767 106.615 8.853V13H105.432V8.957C105.432 8.24633 105.25 7.70033 104.886 7.319C104.522 6.93767 104.028 6.747 103.404 6.747C102.754 6.747 102.234 6.95933 101.844 7.384C101.454 7.8 101.259 8.411 101.259 9.217V13H100.076V5.863H101.259V7.553C101.441 6.97233 101.762 6.526 102.221 6.214C102.689 5.902 103.226 5.746 103.833 5.746ZM114.773 5.863V13H113.59V11.323C113.408 11.9037 113.083 12.35 112.615 12.662C112.156 12.9653 111.619 13.117 111.003 13.117C110.18 13.117 109.513 12.8527 109.001 12.324C108.49 11.7867 108.234 11.0197 108.234 10.023V5.863H109.417V9.906C109.417 10.6167 109.599 11.167 109.963 11.557C110.327 11.9383 110.821 12.129 111.445 12.129C112.095 12.129 112.615 11.921 113.005 11.505C113.395 11.0803 113.59 10.465 113.59 9.659V5.863H114.773ZM123.234 9.035C123.234 9.28633 123.216 9.503 123.182 9.685H117.475C117.501 10.4997 117.73 11.1107 118.164 11.518C118.606 11.9253 119.143 12.129 119.776 12.129C120.348 12.129 120.824 11.986 121.206 11.7C121.596 11.4053 121.834 11.0153 121.921 10.53H123.182C123.095 11.024 122.9 11.466 122.597 11.856C122.302 12.246 121.916 12.5493 121.44 12.766C120.963 12.9827 120.426 13.091 119.828 13.091C119.143 13.091 118.536 12.9437 118.008 12.649C117.479 12.3543 117.063 11.934 116.76 11.388C116.465 10.8333 116.318 10.1833 116.318 9.438C116.318 8.69267 116.465 8.04267 116.76 7.488C117.063 6.93333 117.479 6.50867 118.008 6.214C118.536 5.91933 119.143 5.772 119.828 5.772C120.521 5.772 121.123 5.91933 121.635 6.214C122.155 6.50867 122.549 6.903 122.818 7.397C123.095 7.891 123.234 8.437 123.234 9.035ZM122.038 9.113C122.064 8.58433 121.977 8.14233 121.778 7.787C121.578 7.43167 121.305 7.16733 120.959 6.994C120.612 6.82067 120.235 6.734 119.828 6.734C119.178 6.734 118.632 6.93767 118.19 7.345C117.748 7.74367 117.509 8.333 117.475 9.113H122.038ZM127.017 5.772C127.823 5.772 128.469 5.98433 128.954 6.409C129.448 6.825 129.747 7.38833 129.851 8.099H128.72C128.668 7.67433 128.49 7.32767 128.187 7.059C127.892 6.78167 127.494 6.643 126.991 6.643C126.566 6.643 126.233 6.747 125.99 6.955C125.756 7.15433 125.639 7.42733 125.639 7.774C125.639 8.034 125.717 8.24633 125.873 8.411C126.038 8.567 126.237 8.68833 126.471 8.775C126.714 8.853 127.043 8.93967 127.459 9.035C127.988 9.15633 128.412 9.282 128.733 9.412C129.062 9.53333 129.34 9.73267 129.565 10.01C129.799 10.2873 129.916 10.66 129.916 11.128C129.916 11.7087 129.695 12.181 129.253 12.545C128.82 12.909 128.239 13.091 127.511 13.091C126.662 13.091 125.968 12.8873 125.431 12.48C124.894 12.0727 124.577 11.505 124.482 10.777H125.626C125.669 11.2103 125.856 11.5613 126.185 11.83C126.523 12.0987 126.965 12.233 127.511 12.233C127.918 12.233 128.235 12.129 128.46 11.921C128.694 11.713 128.811 11.44 128.811 11.102C128.811 10.8247 128.729 10.6037 128.564 10.439C128.399 10.2743 128.196 10.1487 127.953 10.062C127.71 9.97533 127.377 9.88433 126.952 9.789C126.423 9.66767 125.999 9.54633 125.678 9.425C125.366 9.30367 125.097 9.113 124.872 8.853C124.655 8.58433 124.547 8.22467 124.547 7.774C124.547 7.176 124.768 6.695 125.21 6.331C125.652 5.95833 126.254 5.772 127.017 5.772ZM134.903 11.96V13H134.019C133.291 13 132.745 12.8267 132.381 12.48C132.026 12.1333 131.848 11.5527 131.848 10.738V6.89H130.782V5.863H131.848V4.082H133.044V5.863H134.89V6.89H133.044V10.764C133.044 11.2233 133.126 11.5397 133.291 11.713C133.464 11.8777 133.759 11.96 134.175 11.96H134.903ZM137.529 7.306C137.763 6.812 138.106 6.43067 138.556 6.162C139.007 5.88467 139.544 5.746 140.168 5.746V7.033H139.804C139.137 7.033 138.591 7.20633 138.166 7.553C137.742 7.891 137.529 8.45433 137.529 9.243V13H136.346V5.863H137.529V7.306ZM144.573 5.772C145.257 5.772 145.868 5.91933 146.406 6.214C146.952 6.50867 147.376 6.93333 147.68 7.488C147.992 8.04267 148.148 8.69267 148.148 9.438C148.148 10.1833 147.992 10.8333 147.68 11.388C147.376 11.934 146.952 12.3543 146.406 12.649C145.868 12.9437 145.257 13.091 144.573 13.091C143.888 13.091 143.273 12.9437 142.727 12.649C142.189 12.3543 141.765 11.934 141.453 11.388C141.141 10.8333 140.985 10.1833 140.985 9.438C140.985 8.69267 141.141 8.04267 141.453 7.488C141.765 6.93333 142.189 6.50867 142.727 6.214C143.273 5.91933 143.888 5.772 144.573 5.772ZM144.573 6.812C144.148 6.812 143.754 6.90733 143.39 7.098C143.034 7.28867 142.744 7.58333 142.519 7.982C142.302 8.372 142.194 8.85733 142.194 9.438C142.194 10.01 142.302 10.4953 142.519 10.894C142.744 11.284 143.034 11.5743 143.39 11.765C143.754 11.9557 144.148 12.051 144.573 12.051C144.997 12.051 145.387 11.9557 145.743 11.765C146.107 11.5743 146.397 11.284 146.614 10.894C146.839 10.4953 146.952 10.01 146.952 9.438C146.952 8.85733 146.839 8.372 146.614 7.982C146.397 7.58333 146.107 7.28867 145.743 7.098C145.387 6.90733 144.997 6.812 144.573 6.812Z" fill="#8C8C83"/>
<path d="M7.46154 27.3846L1 29L2.61538 24.1538V9.61538C2.61538 9.18696 2.78558 8.77608 3.08852 8.47314C3.39146 8.17019 3.80234 8 4.23077 8H20.3846C20.813 8 21.2239 8.17019 21.5269 8.47314C21.8298 8.77608 22 9.18696 22 9.61538V25.7692C22 26.1977 21.8298 26.6085 21.5269 26.9115C21.2239 27.2144 20.813 27.3846 20.3846 27.3846H7.46154Z" stroke="#8C8C83" stroke-width="2" stroke-linecap="round" stroke-linejoin="round"/>
<path d="M7 18.1769C7.34113 19.3424 8.0508 20.366 9.02264 21.0941C9.99449 21.8223 11.1762 22.2159 12.3905 22.2159C13.6049 22.2159 14.7866 21.8223 15.7584 21.0941C16.7303 20.366 17.44 19.3424 17.7811 18.1769" stroke="#8C8C83" stroke-width="2" stroke-linecap="round" stroke-linejoin="round"/>
<path d="M8 14.5C8 14.8978 8.15803 15.2794 8.43934 15.5607C8.72064 15.842 9.10218 16 9.5 16C9.89782 16 10.2794 15.842 10.5607 15.5607C10.842 15.2794 11 14.8978 11 14.5C11 14.1022 10.842 13.7206 10.5607 13.4393C10.2794 13.158 9.89782 13 9.5 13C9.10218 13 8.72064 13.158 8.43934 13.4393C8.15803 13.7206 8 14.1022 8 14.5Z" fill="#8C8C83"/>
<path d="M13.7308 14.5C13.7308 14.8978 13.8888 15.2794 14.1701 15.5607C14.4514 15.842 14.8329 16 15.2308 16C15.6286 16 16.0101 15.842 16.2914 15.5607C16.5727 15.2794 16.7308 14.8978 16.7308 14.5C16.7308 14.1022 16.5727 13.7206 16.2914 13.4393C16.0101 13.158 15.6286 13 15.2308 13C14.8329 13 14.4514 13.158 14.1701 13.4393C13.8888 13.7206 13.7308 14.1022 13.7308 14.5Z" fill="#8C8C83"/>
</svg>