<svg width="131" height="37" viewBox="0 0 131 37" fill="none" xmlns="http://www.w3.org/2000/svg">
<path d="M32.894 26.804C32.7447 25.8333 32.25 25.348 31.41 25.348C30.7567 25.348 30.2807 25.6373 29.982 26.216C29.6833 26.7853 29.5527 27.6813 29.59 28.904C29.7393 28.456 30.0287 28.1013 30.458 27.84C30.8967 27.5693 31.4053 27.434 31.984 27.434C32.936 27.434 33.6827 27.7233 34.224 28.302C34.7747 28.8713 35.05 29.6833 35.05 30.738C35.05 31.3913 34.9193 31.97 34.658 32.474C34.3967 32.978 34.0047 33.3747 33.482 33.664C32.9687 33.9533 32.3433 34.098 31.606 34.098C30.1687 34.098 29.1793 33.6547 28.638 32.768C28.0967 31.872 27.826 30.64 27.826 29.072C27.826 27.2707 28.1153 25.936 28.694 25.068C29.282 24.2 30.2293 23.766 31.536 23.766C32.5347 23.766 33.3 24.0507 33.832 24.62C34.364 25.1893 34.6673 25.9173 34.742 26.804H32.894ZM29.758 30.598C29.758 31.1207 29.9073 31.5547 30.206 31.9C30.514 32.236 30.962 32.404 31.55 32.404C32.054 32.404 32.4553 32.2547 32.754 31.956C33.0527 31.6573 33.202 31.242 33.202 30.71C33.202 30.15 33.048 29.7207 32.74 29.422C32.4413 29.1233 32.0353 28.974 31.522 28.974C31.0367 28.974 30.6213 29.114 30.276 29.394C29.9307 29.674 29.758 30.0753 29.758 30.598ZM36.408 28.974C36.408 32.3247 37.668 34 40.188 34C41.5227 34 42.484 33.552 43.072 32.656C43.66 31.76 43.954 30.5327 43.954 28.974C43.954 27.4247 43.66 26.202 43.072 25.306C42.484 24.41 41.5227 23.962 40.188 23.962C37.668 23.962 36.408 25.6327 36.408 28.974ZM42.008 28.974C42.008 29.9913 41.882 30.7753 41.63 31.326C41.3873 31.8673 40.9067 32.138 40.188 32.138C39.46 32.138 38.97 31.8673 38.718 31.326C38.4753 30.7753 38.354 29.9913 38.354 28.974C38.354 27.966 38.4753 27.1913 38.718 26.65C38.97 26.0993 39.46 25.824 40.188 25.824C40.9067 25.824 41.3873 26.0993 41.63 26.65C41.882 27.1913 42.008 27.966 42.008 28.974ZM45.2537 28.974C45.2537 32.3247 46.5137 34 49.0337 34C50.3684 34 51.3297 33.552 51.9177 32.656C52.5057 31.76 52.7997 30.5327 52.7997 28.974C52.7997 27.4247 52.5057 26.202 51.9177 25.306C51.3297 24.41 50.3684 23.962 49.0337 23.962C46.5137 23.962 45.2537 25.6327 45.2537 28.974ZM50.8537 28.974C50.8537 29.9913 50.7277 30.7753 50.4757 31.326C50.233 31.8673 49.7524 32.138 49.0337 32.138C48.3057 32.138 47.8157 31.8673 47.5637 31.326C47.321 30.7753 47.1997 29.9913 47.1997 28.974C47.1997 27.966 47.321 27.1913 47.5637 26.65C47.8157 26.0993 48.3057 25.824 49.0337 25.824C49.7524 25.824 50.233 26.0993 50.4757 26.65C50.7277 27.1913 50.8537 27.966 50.8537 28.974ZM57.0362 32.012V30.374L61.7682 24.004H63.8822V30.304H65.1702V32.012H63.8822V34H61.8942V32.012H57.0362ZM62.0482 26.314L59.0522 30.304H62.0482V26.314ZM66.281 28.974C66.281 32.3247 67.541 34 70.061 34C71.3957 34 72.357 33.552 72.945 32.656C73.533 31.76 73.827 30.5327 73.827 28.974C73.827 27.4247 73.533 26.202 72.945 25.306C72.357 24.41 71.3957 23.962 70.061 23.962C67.541 23.962 66.281 25.6327 66.281 28.974ZM71.881 28.974C71.881 29.9913 71.755 30.7753 71.503 31.326C71.2604 31.8673 70.7797 32.138 70.061 32.138C69.333 32.138 68.843 31.8673 68.591 31.326C68.3484 30.7753 68.227 29.9913 68.227 28.974C68.227 27.966 68.3484 27.1913 68.591 26.65C68.843 26.0993 69.333 25.824 70.061 25.824C70.7797 25.824 71.2604 26.0993 71.503 26.65C71.755 27.1913 71.881 27.966 71.881 28.974ZM75.1268 28.974C75.1268 32.3247 76.3868 34 78.9068 34C80.2414 34 81.2028 33.552 81.7908 32.656C82.3788 31.76 82.6728 30.5327 82.6728 28.974C82.6728 27.4247 82.3788 26.202 81.7908 25.306C81.2028 24.41 80.2414 23.962 78.9068 23.962C76.3868 23.962 75.1268 25.6327 75.1268 28.974ZM80.7268 28.974C80.7268 29.9913 80.6008 30.7753 80.3488 31.326C80.1061 31.8673 79.6254 32.138 78.9068 32.138C78.1788 32.138 77.6888 31.8673 77.4368 31.326C77.1941 30.7753 77.0728 29.9913 77.0728 28.974C77.0728 27.966 77.1941 27.1913 77.4368 26.65C77.6888 26.0993 78.1788 25.824 78.9068 25.824C79.6254 25.824 80.1061 26.0993 80.3488 26.65C80.6008 27.1913 80.7268 27.966 80.7268 28.974ZM86.5313 25.964V24.116H90.0873V34H88.0153V25.964H86.5313ZM91.6424 28.974C91.6424 32.3247 92.9024 34 95.4224 34C96.757 34 97.7184 33.552 98.3064 32.656C98.8944 31.76 99.1884 30.5327 99.1884 28.974C99.1884 27.4247 98.8944 26.202 98.3064 25.306C97.7184 24.41 96.757 23.962 95.4224 23.962C92.9024 23.962 91.6424 25.6327 91.6424 28.974ZM97.2424 28.974C97.2424 29.9913 97.1164 30.7753 96.8644 31.326C96.6217 31.8673 96.141 32.138 95.4224 32.138C94.6944 32.138 94.2044 31.8673 93.9524 31.326C93.7097 30.7753 93.5884 29.9913 93.5884 28.974C93.5884 27.966 93.7097 27.1913 93.9524 26.65C94.2044 26.0993 94.6944 25.824 95.4224 25.824C96.141 25.824 96.6217 26.0993 96.8644 26.65C97.1164 27.1913 97.2424 27.966 97.2424 28.974ZM100.488 28.974C100.488 32.3247 101.748 34 104.268 34C105.603 34 106.564 33.552 107.152 32.656C107.74 31.76 108.034 30.5327 108.034 28.974C108.034 27.4247 107.74 26.202 107.152 25.306C106.564 24.41 105.603 23.962 104.268 23.962C101.748 23.962 100.488 25.6327 100.488 28.974ZM106.088 28.974C106.088 29.9913 105.962 30.7753 105.71 31.326C105.467 31.8673 104.987 32.138 104.268 32.138C103.54 32.138 103.05 31.8673 102.798 31.326C102.555 30.7753 102.434 29.9913 102.434 28.974C102.434 27.966 102.555 27.1913 102.798 26.65C103.05 26.0993 103.54 25.824 104.268 25.824C104.987 25.824 105.467 26.0993 105.71 26.65C105.962 27.1913 106.088 27.966 106.088 28.974ZM109.334 28.974C109.334 32.3247 110.594 34 113.114 34C114.448 34 115.41 33.552 115.998 32.656C116.586 31.76 116.88 30.5327 116.88 28.974C116.88 27.4247 116.586 26.202 115.998 25.306C115.41 24.41 114.448 23.962 113.114 23.962C110.594 23.962 109.334 25.6327 109.334 28.974ZM114.934 28.974C114.934 29.9913 114.808 30.7753 114.556 31.326C114.313 31.8673 113.832 32.138 113.114 32.138C112.386 32.138 111.896 31.8673 111.644 31.326C111.401 30.7753 111.28 29.9913 111.28 28.974C111.28 27.966 111.401 27.1913 111.644 26.65C111.896 26.0993 112.386 25.824 113.114 25.824C113.832 25.824 114.313 26.0993 114.556 26.65C114.808 27.1913 114.934 27.966 114.934 28.974Z" fill="#8C8C83"/>
<path d="M29.132 12.077H32.382V13H27.949V3.835H29.132V12.077ZM34.7687 3.38V13H33.5857V3.38H34.7687ZM39.5957 5.772C40.289 5.772 40.874 5.94533 41.3507 6.292C41.836 6.63867 42.174 7.10233 42.3647 7.683V5.863H43.5477V13H42.3647V11.18C42.174 11.7607 41.836 12.2243 41.3507 12.571C40.874 12.9177 40.289 13.091 39.5957 13.091C38.963 13.091 38.3997 12.9437 37.9057 12.649C37.4117 12.3543 37.0217 11.934 36.7357 11.388C36.4583 10.8333 36.3197 10.1833 36.3197 9.438C36.3197 8.69267 36.4583 8.04267 36.7357 7.488C37.0217 6.93333 37.4117 6.50867 37.9057 6.214C38.3997 5.91933 38.963 5.772 39.5957 5.772ZM39.9337 6.825C39.2057 6.825 38.6207 7.059 38.1787 7.527C37.7453 7.98633 37.5287 8.62333 37.5287 9.438C37.5287 10.2527 37.7453 10.894 38.1787 11.362C38.6207 11.8213 39.2057 12.051 39.9337 12.051C40.4017 12.051 40.8177 11.9427 41.1817 11.726C41.5543 11.5093 41.8447 11.206 42.0527 10.816C42.2607 10.4173 42.3647 9.958 42.3647 9.438C42.3647 8.918 42.2607 8.45867 42.0527 8.06C41.8447 7.66133 41.5543 7.358 41.1817 7.15C40.8177 6.93333 40.4017 6.825 39.9337 6.825ZM42.0787 3.783L39.3097 5.304V4.459L42.0787 2.821V3.783ZM54.2054 5.746C55.0374 5.746 55.7048 6.01467 56.2074 6.552C56.7188 7.08067 56.9744 7.84767 56.9744 8.853V13H55.7914V8.957C55.7914 8.255 55.6181 7.71767 55.2714 7.345C54.9334 6.97233 54.4654 6.786 53.8674 6.786C53.2434 6.786 52.7408 6.994 52.3594 7.41C51.9868 7.81733 51.8004 8.41967 51.8004 9.217V13H50.6174V8.957C50.6174 8.255 50.4441 7.71767 50.0974 7.345C49.7508 6.97233 49.2828 6.786 48.6934 6.786C48.0608 6.786 47.5538 6.994 47.1724 7.41C46.7998 7.81733 46.6134 8.41967 46.6134 9.217V13H45.4304V5.863H46.6134V7.488C46.7868 6.92467 47.0944 6.49567 47.5364 6.201C47.9871 5.89767 48.5028 5.746 49.0834 5.746C49.6901 5.746 50.2144 5.902 50.6564 6.214C51.1071 6.51733 51.4278 6.968 51.6184 7.566C51.8178 6.98533 52.1514 6.539 52.6194 6.227C53.0874 5.90633 53.6161 5.746 54.2054 5.746ZM61.7363 5.772C62.4296 5.772 63.0146 5.94533 63.4913 6.292C63.9766 6.63867 64.3146 7.10233 64.5053 7.683V5.863H65.6883V13H64.5053V11.18C64.3146 11.7607 63.9766 12.2243 63.4913 12.571C63.0146 12.9177 62.4296 13.091 61.7363 13.091C61.1036 13.091 60.5403 12.9437 60.0463 12.649C59.5523 12.3543 59.1623 11.934 58.8763 11.388C58.599 10.8333 58.4603 10.1833 58.4603 9.438C58.4603 8.69267 58.599 8.04267 58.8763 7.488C59.1623 6.93333 59.5523 6.50867 60.0463 6.214C60.5403 5.91933 61.1036 5.772 61.7363 5.772ZM62.0743 6.825C61.3463 6.825 60.7613 7.059 60.3193 7.527C59.886 7.98633 59.6693 8.62333 59.6693 9.438C59.6693 10.2527 59.886 10.894 60.3193 11.362C60.7613 11.8213 61.3463 12.051 62.0743 12.051C62.5423 12.051 62.9583 11.9427 63.3223 11.726C63.695 11.5093 63.9853 11.206 64.1933 10.816C64.4013 10.4173 64.5053 9.958 64.5053 9.438C64.5053 8.918 64.4013 8.45867 64.1933 8.06C63.9853 7.66133 63.695 7.358 63.3223 7.15C62.9583 6.93333 62.5423 6.825 62.0743 6.825ZM71.3281 5.746C72.1601 5.746 72.8317 6.01467 73.3431 6.552C73.8544 7.08067 74.1101 7.84767 74.1101 8.853V13H72.9271V8.957C72.9271 8.24633 72.7451 7.70033 72.3811 7.319C72.0171 6.93767 71.5231 6.747 70.8991 6.747C70.2491 6.747 69.7291 6.95933 69.3391 7.384C68.9491 7.8 68.7541 8.411 68.7541 9.217V13H67.5711V5.863H68.7541V7.553C68.9361 6.97233 69.2567 6.526 69.7161 6.214C70.1841 5.902 70.7214 5.746 71.3281 5.746ZM79.1616 5.772C79.8463 5.772 80.4573 5.91933 80.9946 6.214C81.5406 6.50867 81.9653 6.93333 82.2686 7.488C82.5806 8.04267 82.7366 8.69267 82.7366 9.438C82.7366 10.1833 82.5806 10.8333 82.2686 11.388C81.9653 11.934 81.5406 12.3543 80.9946 12.649C80.4573 12.9437 79.8463 13.091 79.1616 13.091C78.4769 13.091 77.8616 12.9437 77.3156 12.649C76.7783 12.3543 76.3536 11.934 76.0416 11.388C75.7296 10.8333 75.5736 10.1833 75.5736 9.438C75.5736 8.69267 75.7296 8.04267 76.0416 7.488C76.3536 6.93333 76.7783 6.50867 77.3156 6.214C77.8616 5.91933 78.4769 5.772 79.1616 5.772ZM79.1616 6.812C78.7369 6.812 78.3426 6.90733 77.9786 7.098C77.6233 7.28867 77.3329 7.58333 77.1076 7.982C76.8909 8.372 76.7826 8.85733 76.7826 9.438C76.7826 10.01 76.8909 10.4953 77.1076 10.894C77.3329 11.284 77.6233 11.5743 77.9786 11.765C78.3426 11.9557 78.7369 12.051 79.1616 12.051C79.5863 12.051 79.9763 11.9557 80.3316 11.765C80.6956 11.5743 80.9859 11.284 81.2026 10.894C81.4279 10.4953 81.5406 10.01 81.5406 9.438C81.5406 8.85733 81.4279 8.372 81.2026 7.982C80.9859 7.58333 80.6956 7.28867 80.3316 7.098C79.9763 6.90733 79.5863 6.812 79.1616 6.812ZM86.5141 5.772C87.3201 5.772 87.9658 5.98433 88.4511 6.409C88.9451 6.825 89.2441 7.38833 89.3481 8.099H88.2171C88.1651 7.67433 87.9874 7.32767 87.6841 7.059C87.3894 6.78167 86.9908 6.643 86.4881 6.643C86.0634 6.643 85.7298 6.747 85.4871 6.955C85.2531 7.15433 85.1361 7.42733 85.1361 7.774C85.1361 8.034 85.2141 8.24633 85.3701 8.411C85.5348 8.567 85.7341 8.68833 85.9681 8.775C86.2108 8.853 86.5401 8.93967 86.9561 9.035C87.4848 9.15633 87.9094 9.282 88.2301 9.412C88.5594 9.53333 88.8368 9.73267 89.0621 10.01C89.2961 10.2873 89.4131 10.66 89.4131 11.128C89.4131 11.7087 89.1921 12.181 88.7501 12.545C88.3168 12.909 87.7361 13.091 87.0081 13.091C86.1588 13.091 85.4654 12.8873 84.9281 12.48C84.3908 12.0727 84.0744 11.505 83.9791 10.777H85.1231C85.1664 11.2103 85.3528 11.5613 85.6821 11.83C86.0201 12.0987 86.4621 12.233 87.0081 12.233C87.4154 12.233 87.7318 12.129 87.9571 11.921C88.1911 11.713 88.3081 11.44 88.3081 11.102C88.3081 10.8247 88.2258 10.6037 88.0611 10.439C87.8964 10.2743 87.6928 10.1487 87.4501 10.062C87.2074 9.97533 86.8738 9.88433 86.4491 9.789C85.9204 9.66767 85.4958 9.54633 85.1751 9.425C84.8631 9.30367 84.5944 9.113 84.3691 8.853C84.1524 8.58433 84.0441 8.22467 84.0441 7.774C84.0441 7.176 84.2651 6.695 84.7071 6.331C85.1491 5.95833 85.7514 5.772 86.5141 5.772ZM97.1308 5.772C97.8242 5.772 98.4092 5.94533 98.8858 6.292C99.3712 6.63867 99.7092 7.10233 99.8998 7.683V5.863H101.083V13H99.8998V11.18C99.7092 11.7607 99.3712 12.2243 98.8858 12.571C98.4092 12.9177 97.8242 13.091 97.1308 13.091C96.4982 13.091 95.9348 12.9437 95.4408 12.649C94.9468 12.3543 94.5568 11.934 94.2708 11.388C93.9935 10.8333 93.8548 10.1833 93.8548 9.438C93.8548 8.69267 93.9935 8.04267 94.2708 7.488C94.5568 6.93333 94.9468 6.50867 95.4408 6.214C95.9348 5.91933 96.4982 5.772 97.1308 5.772ZM97.4688 6.825C96.7408 6.825 96.1558 7.059 95.7138 7.527C95.2805 7.98633 95.0638 8.62333 95.0638 9.438C95.0638 10.2527 95.2805 10.894 95.7138 11.362C96.1558 11.8213 96.7408 12.051 97.4688 12.051C97.9368 12.051 98.3528 11.9427 98.7168 11.726C99.0895 11.5093 99.3798 11.206 99.5878 10.816C99.7958 10.4173 99.8998 9.958 99.8998 9.438C99.8998 8.918 99.7958 8.45867 99.5878 8.06C99.3798 7.66133 99.0895 7.358 98.7168 7.15C98.3528 6.93333 97.9368 6.825 97.4688 6.825ZM104.149 3.38V13H102.966V3.38H104.149Z" fill="#8C8C83"/>
<path d="M11.8069 25.3591C12.6108 25.8727 13.5659 26.0965 14.5143 25.9935C15.4626 25.8904 16.3474 25.4667 17.0222 24.7924L17.6072 24.2074C17.8686 23.9458 18.0154 23.5911 18.0154 23.2212C18.0154 22.8514 17.8686 22.4967 17.6072 22.2351L15.1363 19.7642C14.8747 19.5028 14.52 19.356 14.1502 19.356C13.7803 19.356 13.4257 19.5028 13.164 19.7642V19.7642C12.9022 20.0257 12.5473 20.1726 12.1773 20.1726C11.8072 20.1726 11.4523 20.0257 11.1905 19.7642L7.25121 15.8197C6.98972 15.5579 6.84284 15.203 6.84284 14.8329C6.84284 14.4629 6.98972 14.108 7.25121 13.8462V13.8462C7.51262 13.5846 7.65946 13.2299 7.65946 12.86C7.65946 12.4902 7.51262 12.1355 7.25121 11.8739L4.78556 9.40826C4.52396 9.14684 4.16926 9 3.79943 9C3.4296 9 3.07491 9.14684 2.81331 9.40826L2.2283 9.99457C1.55349 10.6686 1.12897 11.5528 1.02498 12.5009C0.920979 13.449 1.14373 14.4042 1.65639 15.2085C4.35984 19.2099 7.80558 22.6556 11.8069 25.3591V25.3591Z" stroke="#8C8C83" stroke-width="2" stroke-linecap="round" stroke-linejoin="round"/>
</svg>