<?xml version="1.0" encoding="UTF-8"?>
<svg width="185px" height="19px" viewBox="0 0 185 19" version="1.1" xmlns="http://www.w3.org/2000/svg" xmlns:xlink="http://www.w3.org/1999/xlink">
    <!-- Generator: Sketch 61 (89581) - https://sketch.com -->
    <title>Logo-BancoBICE</title>
    <desc>Created with Sketch.</desc>
    <g id="landing-sprint2" stroke="none" stroke-width="1" fill="none" fill-rule="evenodd">
        <g id="Ingreso-Personas-Copy" transform="translate(-25.000000, -29.000000)" fill="#005A96">
            <g id="Logo-BancoBICE" transform="translate(25.000000, 29.000000)">
                <path d="M-1.06008392e-14,0.3128768 L5.30171053,0.3128768 C7.87613158,0.3128768 9.83907895,2.1887488 9.83907895,4.8215168 C9.83907895,6.5932288 8.9725,8.0782528 7.41752632,8.6000448 C9.68621053,8.9125248 11.1136316,10.8935488 11.1136316,13.2902208 C11.1136316,16.2354688 8.89655263,18.4763968 5.96478947,18.4763968 L-1.06008392e-14,18.4763968 L-1.06008392e-14,0.3128768 Z M5.20044737,8.1308288 C7.11178947,8.1308288 8.51389474,6.7489728 8.51389474,4.8731008 C8.51389474,2.9704448 7.13710526,1.5637888 5.22576316,1.5637888 L1.32518421,1.5637888 L1.32518421,8.1308288 L5.20044737,8.1308288 Z M62.5786842,0 C65.3059737,0 67.7022105,1.146752 69.3594211,3.049408 L68.4665526,3.90848 C67.0654211,2.240928 65.0002368,1.250912 62.5786842,1.250912 C58.0676053,1.250912 54.7025526,4.742752 54.7025526,9.408128 C54.7025526,14.04672 58.0676053,17.53856 62.5786842,17.53856 C65.0002368,17.53856 67.1160526,16.52176 68.4928421,14.828416 L69.4100526,15.68848 C67.7538158,17.64272 65.3059737,18.789472 62.5786842,18.789472 C57.4551579,18.789472 53.3763947,14.77584 53.3763947,9.408128 C53.3763947,4.013632 57.4298421,0 62.5786842,0 Z M82.1550921,0 C87.2533026,0 91.3310921,4.013632 91.3310921,9.408128 C91.3310921,14.801632 87.2533026,18.789472 82.1550921,18.789472 C77.0315658,18.789472 72.9790921,14.801632 72.9790921,9.408128 C72.9790921,4.013632 77.0315658,0 82.1550921,0 Z M161.257879,0.1258848 C164.117589,0.1258848 166.648195,1.4154848 168.394984,3.4778528 L165.7378,5.7723488 C164.623905,4.5085408 163.029984,3.7357728 161.257879,3.7357728 C158.120668,3.7357728 155.666011,6.1592288 155.666011,9.4080288 C155.666011,12.6568288 158.120668,15.0535008 161.257879,15.0535008 C163.029984,15.0535008 164.649221,14.2807328 165.762142,12.9911328 L168.4203,15.2856288 C166.673511,17.3737888 164.117589,18.6633888 161.257879,18.6633888 C156.019458,18.6633888 151.768353,14.7697888 151.768353,9.4080288 C151.768353,4.0442848 156.019458,0.1258848 161.257879,0.1258848 Z M22.6355289,0.3128768 L29.9517921,18.4763968 L28.5243711,18.4763968 L26.5361079,13.5253248 L17.6648711,13.5253248 L15.7028974,18.4763968 L14.2745026,18.4763968 L21.5907658,0.3128768 L22.6355289,0.3128768 Z M35.7123026,0.3128768 L47.0294342,16.0271488 L47.0294342,0.3128768 L48.3555921,0.3128768 L48.3555921,18.4763968 L47.2592237,18.4763968 L35.8904868,2.6579648 L35.8904868,18.4763968 L34.5653026,18.4763968 L34.5653026,0.3128768 L35.7123026,0.3128768 Z M116.527605,15.8138688 L116.527605,18.3801728 L98.8893158,18.3801728 L98.8893158,15.8138688 L116.527605,15.8138688 Z M147.136342,0.4100928 L147.136342,18.3801728 L143.239658,18.3801728 L143.239658,0.4100928 L147.136342,0.4100928 Z M132.357568,0.4097952 C135.166647,0.4097952 137.393463,2.3422112 137.393463,4.9987872 C137.393463,6.7258592 136.559016,8.0928352 135.141332,8.6086752 C137.469411,9.0203552 138.684568,10.8257952 138.684568,13.0687072 C138.684568,16.1111712 136.407121,18.3798752 133.319568,18.3798752 L125.348016,18.3798752 L125.348016,0.4097952 L132.357568,0.4097952 Z M184.566321,0.4097952 L184.566321,4.0186912 L176.417558,4.0186912 L176.417558,7.3964512 L184.034689,7.3964512 L184.034689,10.9289632 L176.417558,10.9289632 L176.417558,14.7699872 L184.743532,14.7699872 L184.743532,18.3798752 L172.5199,18.3798752 L172.5199,0.4097952 L184.566321,0.4097952 Z M82.1550921,1.276704 C77.6946447,1.276704 74.2789605,4.795328 74.2789605,9.408128 C74.2789605,14.019936 77.6440132,17.512768 82.1550921,17.512768 C86.6418289,17.512768 89.9805921,14.019936 89.9805921,9.408128 C89.9805921,4.795328 86.5902237,1.276704 82.1550921,1.276704 Z M5.78660526,9.3817408 C8.13123684,9.3817408 9.78844737,11.0492928 9.78844737,13.2902208 C9.78844737,15.5321408 8.10592105,17.2254848 5.88786842,17.2254848 L5.88786842,17.2254848 L1.32518421,17.2254848 L1.32518421,9.3817408 Z M132.509463,10.6452512 L129.168753,10.6452512 L129.168753,14.9505312 L132.535753,14.9505312 C133.8512,14.9505312 134.812226,13.9962272 134.812226,12.7592032 C134.812226,11.5469792 133.876516,10.6452512 132.509463,10.6452512 Z M116.527605,10.6782848 L116.527605,13.2455808 L98.8893158,13.2455808 L98.8893158,10.6782848 L116.527605,10.6782848 Z M22.1009763,2.3980608 L18.1750816,12.2744128 L26.0258974,12.2744128 L22.1009763,2.3980608 Z M116.527605,5.5436928 L116.527605,8.1109888 L98.8893158,8.1109888 L98.8893158,5.5436928 L116.527605,5.5436928 Z M131.749989,3.8123552 L129.168753,3.8123552 L129.168753,7.5760032 L131.724674,7.5760032 C132.838568,7.5760032 133.623358,6.7774432 133.623358,5.6693792 C133.623358,4.6119072 132.838568,3.8123552 131.749989,3.8123552 Z M116.527605,0.4110848 L116.527605,2.9773888 L98.8893158,2.9773888 L98.8893158,0.4110848 L116.527605,0.4110848 Z" id="Logo"/>
            </g>
        </g>
    </g>
</svg>